<svg width="130" height="32" viewBox="0 0 130 32" fill="none" xmlns="http://www.w3.org/2000/svg">
<path d="M17.6011 32C16.616 32 15.573 31.3793 14.472 30.138C12.8785 27.9441 12.0383 25.3748 11.9514 22.4303C11.9514 21.5065 11.9804 20.7415 12.0383 20.1353C12.1252 19.5002 12.328 18.4465 12.6467 16.9743C12.9654 15.4732 13.2117 14.304 13.3856 13.4668C13.5884 12.6297 13.6898 11.6626 13.6898 10.5656C13.6608 9.49752 13.5014 8.58818 13.2117 7.83762C11.9659 9.80063 10.7055 12.2544 9.43073 15.1989C7.92413 18.9229 7.0984 21.0014 6.95353 21.4344C5.82358 24.8696 5.11374 27.2945 4.82401 28.7091C4.73709 29.0844 4.6212 29.4596 4.47634 29.8349C4.04174 30.7876 3.28844 31.2639 2.21644 31.2639C1.66595 31.2639 1.15892 31.0474 0.695353 30.6143C0.231784 30.2102 0 29.5318 0 28.5792L0.0434596 27.843C0.304217 25.7357 0.695353 23.7438 1.21687 21.8674L2.21644 19.0961C4.88196 11.5327 7.8517 6.19215 11.1257 3.07442C13.2697 1.02481 15.1964 0 16.9058 0C17.3693 0 18.2096 0.216509 19.4264 0.649526C20.6723 1.05368 21.5415 3.11773 22.034 6.84168C22.2078 8.60262 22.2948 10.378 22.2948 12.1678C22.2948 13.2359 22.2658 14.3184 22.2078 15.4154C21.9761 21.4199 21.3242 26.2842 20.2522 30.0081C19.8176 31.336 18.9339 32 17.6011 32Z" fill="white"/>
<path d="M27.7545 28.5792C26.5667 28.5792 25.4802 28.2183 24.4951 27.4966C23.539 26.7461 23.0609 25.6779 23.0609 24.2923C23.0609 23.2819 23.3362 22.1705 23.8866 20.9581C24.4371 19.7167 25.2918 18.6486 26.4508 17.7537C27.6387 16.83 29.1163 16.3681 30.8836 16.3681C31.1154 16.3681 31.2458 16.3536 31.2748 16.3248C31.3327 16.267 31.3617 16.1371 31.3617 15.935C31.3617 15.1556 31.3037 14.3906 31.1879 13.6401C31.043 12.7452 30.478 12.2977 29.4929 12.2977C29.2032 12.2977 28.8121 12.4565 28.3195 12.774C27.8559 13.0627 27.5372 13.3947 27.3634 13.77C27.1027 14.4051 26.6681 14.7226 26.0596 14.7226C25.8568 14.7226 25.625 14.6504 25.3643 14.5061C25.1035 14.3618 24.9731 14.1019 24.9731 13.7267C24.9731 11.9369 25.625 10.5079 26.9288 9.43978C28.2616 8.34281 29.7102 7.79432 31.2748 7.79432C32.8393 7.79432 34.0707 8.15516 34.9688 8.87686C35.896 9.59856 36.5768 10.5079 37.0114 11.6049C37.446 12.7018 37.6923 13.8133 37.7502 14.9391C37.7502 15.9495 37.6199 17.3929 37.3591 19.2693C36.8955 22.6468 35.3745 25.1728 32.7959 26.8471C31.0575 28.0018 29.377 28.5792 27.7545 28.5792ZM28.3195 23.4696C28.7831 23.4696 29.1887 23.253 29.5364 22.82C29.8841 22.3581 30.1593 21.8674 30.3621 21.3478C30.5649 20.7993 30.6953 20.3663 30.7533 20.0487C30.2897 20.0487 29.7971 20.2219 29.2756 20.5683C28.7541 20.9148 28.3195 21.3189 27.9718 21.7808C27.6242 22.2138 27.4503 22.6035 27.4503 22.9499C27.4503 23.2963 27.7401 23.4696 28.3195 23.4696Z" fill="white"/>
<path d="M42.2768 28.9256C42.1609 28.9256 41.7843 28.8967 41.1469 28.839C40.5095 28.7812 39.901 28.1173 39.3216 26.8471C38.858 25.6346 38.6262 24.35 38.6262 22.9932C38.6262 22.6468 38.6552 21.954 38.7132 20.9148C38.8001 19.8466 39.1188 18.2733 39.6693 16.1949C40.6254 11.8647 42.3058 7.88092 44.7106 4.24357C45.5218 3.14659 46.3475 2.59811 47.1878 2.59811C47.97 2.59811 48.593 2.97339 49.0565 3.72395C49.4332 4.47451 49.6215 5.39829 49.6215 6.49526C49.6215 7.62111 49.4911 8.9779 49.2304 10.5656L49.1 12.8606C49.2449 12.8606 49.5925 12.5431 50.143 11.908C50.6066 11.4172 51.1426 10.8976 51.751 10.3491C52.5912 9.59856 53.417 9.22327 54.2282 9.22327C54.8077 9.22327 55.2423 9.42535 55.532 9.8295C55.6769 10.0604 55.7493 10.3347 55.7493 10.6522C55.7493 11.0853 55.59 11.5904 55.2712 12.1678C54.9525 12.7452 54.431 13.3658 53.7067 14.0298C52.9824 14.6649 52.0118 15.6464 50.7949 16.9743C50.679 17.1186 50.5921 17.2197 50.5342 17.2774C50.5052 17.3063 50.4907 17.3496 50.4907 17.4073C50.4907 17.465 50.5776 17.6094 50.7515 17.8403C51.7076 19.0816 52.8665 20.8426 54.2282 23.1231C55.3292 25.0284 55.8797 26.3275 55.8797 27.0203C55.8797 27.3378 55.7638 27.6554 55.532 27.9729C55.1264 28.406 54.4745 28.6225 53.5763 28.6225C52.6782 28.6225 51.6206 28.0595 50.4038 26.9337C49.4766 26.0965 48.6654 25.3171 47.97 24.5954C47.4196 23.9603 47.1008 23.6428 47.0139 23.6428C46.6373 24.8841 46.0723 26.0388 45.319 27.1069C44.3919 28.3194 43.3778 28.9256 42.2768 28.9256Z" fill="white"/>
<path d="M62.8324 27.8863C62.6296 27.8863 62.0501 27.8575 61.094 27.7997C60.1668 27.7131 59.1093 27.0059 57.9214 25.6779C56.7335 24.35 56.1396 22.4736 56.1396 20.0487C56.1396 15.8051 57.4289 12.2688 60.0075 9.43978C60.9636 8.42941 62.1515 7.85205 63.5712 7.70771H63.9189C64.3245 7.70771 64.6866 7.76545 65.0053 7.88092C65.353 7.99639 65.6572 8.05413 65.918 8.05413H66.5264C68.062 8.05413 69.3223 8.63148 70.3074 9.7862C71.6981 11.4317 72.3935 13.5534 72.3935 16.1516C72.3935 17.8548 72.0313 19.5147 71.307 21.1313C70.264 23.5273 68.9167 25.2882 67.2653 26.4141C65.8166 27.3956 64.339 27.8863 62.8324 27.8863ZM64.5273 21.4777C64.817 21.4777 65.0923 21.29 65.353 20.9148C66.3091 19.6734 66.7872 18.4321 66.7872 17.1908C66.7872 17.1042 66.7582 16.7 66.7003 15.9783C66.6713 15.2567 66.2946 14.5638 65.5703 13.8999C64.4404 15.7763 63.8754 17.5516 63.8754 19.226C63.8754 19.659 63.9189 20.1065 64.0058 20.5683C64.0348 20.6549 64.0492 20.756 64.0492 20.8714C64.0782 20.9869 64.1072 21.1168 64.1362 21.2612C64.1941 21.4055 64.3245 21.4777 64.5273 21.4777Z" fill="white"/>
<path d="M91.7287 28.0162C91.5839 28.0162 91.1638 27.9729 90.4684 27.8863C89.7731 27.7709 89.2371 26.645 88.8604 24.5088C88.8025 23.9892 88.7735 23.4407 88.7735 22.8633C88.7735 21.6797 88.9763 19.558 89.3819 16.498L89.5123 15.1989L88.9039 16.6712C86.7309 22.1849 84.978 24.9418 83.6453 24.9418C82.5443 24.9418 81.7041 24.4799 81.1246 23.5562C80.5741 22.6035 80.183 21.5354 79.9512 20.3518C79.7484 19.1394 79.618 18.0857 79.5601 17.1908C79.5021 16.5846 79.4442 16.166 79.3862 15.935C78.7488 17.1764 78.1114 19.3415 77.474 22.4303C77.0684 24.3067 76.6628 25.8078 76.2571 26.9337C76.1123 27.2512 75.837 27.4822 75.4314 27.6265C75.1417 27.742 74.8375 27.7997 74.5188 27.7997C74.4029 27.7997 74.2001 27.7709 73.9103 27.7131C73.186 27.5688 72.8238 26.9048 72.8238 25.7212C72.8238 24.8552 72.8673 24.1191 72.9542 23.5129V23.2097C73.157 20.8714 73.5916 18.3455 74.258 15.6319C74.9244 12.8895 75.895 10.7533 77.1698 9.22327C77.8651 8.35724 78.6909 7.92422 79.647 7.92422C80.4293 7.92422 81.2695 8.19847 82.1676 8.74695C83.7612 9.98827 84.7607 11.7781 85.1664 14.1164C85.2533 14.4628 85.3257 14.6937 85.3837 14.8092C85.4126 14.6937 85.4561 14.5927 85.514 14.5061C86.9337 11.5616 88.223 9.58412 89.3819 8.57375C90.0193 8.14073 90.6278 7.92422 91.2072 7.92422C92.0185 7.92422 92.8008 8.2995 93.5541 9.05007C95.0896 10.8687 95.8574 13.7267 95.8574 17.6238C95.8574 18.5765 95.756 19.8322 95.5532 21.3911C95.3793 22.9211 94.9737 24.4078 94.3363 25.8512C93.7279 27.2945 92.8587 28.0162 91.7287 28.0162Z" fill="white"/>
<path d="M101.231 28.9256C101.115 28.9256 100.738 28.8967 100.101 28.839C99.4632 28.7812 98.8548 28.1173 98.2754 26.8471C97.8118 25.6346 97.58 24.35 97.58 22.9932C97.58 22.6468 97.609 21.954 97.6669 20.9148C97.7538 19.8466 98.0725 18.2733 98.623 16.1949C99.5791 11.8647 101.26 7.88092 103.664 4.24357C104.476 3.14659 105.301 2.59811 106.142 2.59811C106.924 2.59811 107.547 2.97339 108.01 3.72395C108.387 4.47451 108.575 5.39829 108.575 6.49526C108.575 7.62111 108.445 8.9779 108.184 10.5656L108.054 12.8606C108.199 12.8606 108.546 12.5431 109.097 11.908C109.56 11.4172 110.096 10.8976 110.705 10.3491C111.545 9.59856 112.371 9.22327 113.182 9.22327C113.761 9.22327 114.196 9.42535 114.486 9.8295C114.631 10.0604 114.703 10.3347 114.703 10.6522C114.703 11.0853 114.544 11.5904 114.225 12.1678C113.906 12.7452 113.385 13.3658 112.66 14.0298C111.936 14.6649 110.966 15.6464 109.749 16.9743C109.633 17.1186 109.546 17.2197 109.488 17.2774C109.459 17.3063 109.444 17.3496 109.444 17.4073C109.444 17.465 109.531 17.6094 109.705 17.8403C110.661 19.0816 111.82 20.8426 113.182 23.1231C114.283 25.0284 114.833 26.3275 114.833 27.0203C114.833 27.3378 114.718 27.6554 114.486 27.9729C114.08 28.406 113.428 28.6225 112.53 28.6225C111.632 28.6225 110.574 28.0595 109.358 26.9337C108.43 26.0965 107.619 25.3171 106.924 24.5954C106.373 23.9603 106.055 23.6428 105.968 23.6428C105.591 24.8841 105.026 26.0388 104.273 27.1069C103.346 28.3194 102.332 28.9256 101.231 28.9256Z" fill="white"/>
<path d="M120.004 28.5792C118.816 28.5792 117.73 28.2183 116.745 27.4966C115.789 26.7461 115.311 25.6779 115.311 24.2923C115.311 23.2819 115.586 22.1705 116.136 20.9581C116.687 19.7167 117.542 18.6486 118.701 17.7537C119.888 16.83 121.366 16.3681 123.133 16.3681C123.365 16.3681 123.496 16.3536 123.525 16.3248C123.582 16.267 123.611 16.1371 123.611 15.935C123.611 15.1556 123.553 14.3906 123.438 13.6401C123.293 12.7452 122.728 12.2977 121.743 12.2977C121.453 12.2977 121.062 12.4565 120.569 12.774C120.106 13.0627 119.787 13.3947 119.613 13.77C119.352 14.4051 118.918 14.7226 118.309 14.7226C118.107 14.7226 117.875 14.6504 117.614 14.5061C117.353 14.3618 117.223 14.1019 117.223 13.7267C117.223 11.9369 117.875 10.5079 119.179 9.43978C120.511 8.34281 121.96 7.79432 123.525 7.79432C125.089 7.79432 126.32 8.15516 127.219 8.87686C128.146 9.59856 128.827 10.5079 129.261 11.6049C129.696 12.7018 129.942 13.8133 130 14.9391C130 15.9495 129.87 17.3929 129.609 19.2693C129.145 22.6468 127.624 25.1728 125.046 26.8471C123.307 28.0018 121.627 28.5792 120.004 28.5792ZM120.569 23.4696C121.033 23.4696 121.438 23.253 121.786 22.82C122.134 22.3581 122.409 21.8674 122.612 21.3478C122.815 20.7993 122.945 20.3663 123.003 20.0487C122.539 20.0487 122.047 20.2219 121.525 20.5683C121.004 20.9148 120.569 21.3189 120.222 21.7808C119.874 22.2138 119.7 22.6035 119.7 22.9499C119.7 23.2963 119.99 23.4696 120.569 23.4696Z" fill="white"/>
</svg>
