<svg width="200" height="200" viewBox="0 0 200 200" fill="none" xmlns="http://www.w3.org/2000/svg">
<path fill-rule="evenodd" clip-rule="evenodd" d="M196.045 72.06H174.365L140.513 104.508V121.98H178.109V129H195.73C183.3 170.087 145.143 200 100 200C52.3229 200 12.4387 166.635 2.42332 121.98H18.986V129H48.236V121.98H59.156V102.324H48.236V72.06H15.242L1.01521 85.6967C7.95462 37.2439 49.6279 0 100 0C145.531 0 183.955 30.4289 196.045 72.06ZM7.44201 102.324L18.986 91.404V102.324H7.44201ZM61.0914 101.934C61.0914 118.392 73.2594 130.56 99.8574 130.56C126.533 130.56 138.701 118.392 138.701 101.934V99.126C138.701 82.668 126.533 70.5 99.8574 70.5C73.2594 70.5 61.0914 82.668 61.0914 99.126V101.934ZM108.125 100.842C108.125 105.21 105.395 107.94 99.8574 107.94C94.3194 107.94 91.5894 105.21 91.5894 100.842V100.218C91.5894 95.85 94.3194 93.12 99.8574 93.12C105.395 93.12 108.125 95.85 108.125 100.218V100.842ZM166.565 102.324L178.109 91.404V102.324H166.565Z" fill="white"/>
</svg>
