<svg width="504" height="124" viewBox="0 0 504 124" fill="none" xmlns="http://www.w3.org/2000/svg">
<path d="M68.2382 124C64.4191 124 60.3754 121.595 56.107 116.785C49.929 108.283 46.6716 98.3275 46.3346 86.9175C46.3346 83.3379 46.4469 80.3735 46.6716 78.0244C47.0086 75.5634 47.7948 71.4804 49.0304 65.7754C50.266 59.9585 51.2208 55.4281 51.8947 52.184C52.681 48.94 53.0742 45.1926 53.0742 40.9418C52.9618 36.8029 52.3441 33.2792 51.2208 30.3708C46.3908 37.9774 41.5046 47.4858 36.5622 58.8958C30.7212 73.3261 27.5199 81.3802 26.9583 83.0582C22.5776 96.3699 19.8256 105.766 18.7023 111.248C18.3654 112.702 17.916 114.156 17.3544 115.61C15.6695 119.302 12.749 121.148 8.59296 121.148C6.45876 121.148 4.49305 120.309 2.69583 118.631C0.89861 117.065 0 114.436 0 110.744L0.16849 107.892C1.17943 99.7258 2.69583 92.0072 4.7177 84.7361L8.59296 73.9973C18.927 44.6892 30.4404 23.9946 43.1333 11.9134C51.4454 3.97113 58.9151 0 65.5424 0C67.3396 0 70.5971 0.838971 75.3148 2.51691C80.1448 4.08299 83.5146 12.0812 85.4241 26.5115C86.0981 33.3351 86.4351 40.2147 86.4351 47.1502C86.4351 51.2891 86.3228 55.484 86.0981 59.7348C85.1995 83.0023 82.6722 101.851 78.5161 116.281C76.8312 121.427 73.4052 124 68.2382 124Z" fill="white"/>
<path d="M107.602 110.744C102.997 110.744 98.7846 109.346 94.9655 106.549C91.2588 103.641 89.4054 99.502 89.4054 94.1326C89.4054 90.2174 90.4725 85.9107 92.6067 81.2125C94.7409 76.4024 98.0545 72.2634 102.548 68.7957C107.153 65.2161 112.882 63.4263 119.733 63.4263C120.632 63.4263 121.138 63.3703 121.25 63.2585C121.475 63.0347 121.587 62.5314 121.587 61.7483C121.587 58.728 121.362 55.7636 120.913 52.8552C120.351 49.3875 118.161 47.6536 114.342 47.6536C113.219 47.6536 111.702 48.2688 109.793 49.4993C107.995 50.618 106.76 51.9044 106.086 53.3586C105.075 55.8196 103.39 57.0501 101.031 57.0501C100.245 57.0501 99.3462 56.7704 98.3353 56.2111C97.3244 55.6518 96.8189 54.645 96.8189 53.1908C96.8189 46.2553 99.3462 40.7181 104.401 36.5792C109.568 32.3284 115.184 30.203 121.25 30.203C127.316 30.203 132.089 31.6013 135.571 34.3978C139.166 37.1944 141.806 40.7181 143.49 44.9689C145.175 49.2197 146.13 53.5264 146.355 57.889C146.355 61.8042 145.849 67.3974 144.838 74.6685C143.041 87.7564 137.144 97.5444 127.147 104.032C120.407 108.507 113.893 110.744 107.602 110.744ZM109.793 90.9445C111.59 90.9445 113.162 90.1056 114.51 88.4276C115.858 86.6378 116.925 84.7361 117.712 82.7226C118.498 80.5972 119.003 78.9193 119.228 77.6888C117.431 77.6888 115.521 78.36 113.499 79.7023C111.477 81.0447 109.793 82.6107 108.445 84.4006C107.097 86.0785 106.423 87.5886 106.423 88.931C106.423 90.2734 107.546 90.9445 109.793 90.9445Z" fill="white"/>
<path d="M163.904 112.087C163.455 112.087 161.994 111.975 159.523 111.751C157.052 111.527 154.693 108.954 152.447 104.032C150.65 99.3342 149.751 94.3563 149.751 89.0988C149.751 87.7564 149.863 85.0717 150.088 81.0447C150.425 76.9057 151.66 70.8092 153.795 62.7551C157.501 45.9756 164.016 30.5386 173.339 16.4438C176.485 12.1931 179.686 10.0677 182.943 10.0677C185.976 10.0677 188.391 11.5219 190.188 14.4303C191.649 17.3387 192.379 20.9184 192.379 25.1691C192.379 29.5318 191.873 34.7894 190.862 40.9418L190.357 49.8349C190.919 49.8349 192.266 48.6044 194.401 46.1434C196.198 44.2418 198.276 42.2282 200.635 40.1028C203.892 37.1944 207.094 35.7402 210.239 35.7402C212.485 35.7402 214.17 36.5232 215.293 38.0893C215.855 38.9842 216.136 40.0469 216.136 41.2774C216.136 42.9553 215.518 44.9129 214.282 47.1502C213.047 49.3875 211.025 51.7925 208.217 54.3654C205.409 56.8263 201.646 60.6297 196.928 65.7754C196.479 66.3347 196.142 66.7262 195.917 66.9499C195.805 67.0618 195.749 67.2296 195.749 67.4533C195.749 67.677 196.086 68.2364 196.759 69.1313C200.466 73.9414 204.959 80.765 210.239 89.6022C214.507 96.9851 216.641 102.019 216.641 104.704C216.641 105.934 216.192 107.165 215.293 108.395C213.721 110.073 211.193 110.912 207.711 110.912C204.229 110.912 200.129 108.731 195.412 104.368C191.817 101.124 188.672 98.1038 185.976 95.3072C183.842 92.8462 182.606 91.6157 182.269 91.6157C180.809 96.4258 178.619 100.9 175.698 105.039C172.104 109.737 168.172 112.087 163.904 112.087Z" fill="white"/>
<path d="M243.596 108.06C242.81 108.06 240.563 107.948 236.857 107.724C233.262 107.388 229.162 104.648 224.557 99.502C219.952 94.3563 217.649 87.0853 217.649 77.6888C217.649 61.2449 222.647 47.5417 232.644 36.5792C236.351 32.664 240.957 30.4267 246.461 29.8674H247.808C249.381 29.8674 250.785 30.0911 252.021 30.5386C253.369 30.986 254.548 31.2097 255.559 31.2097H257.918C263.871 31.2097 268.757 33.447 272.576 37.9215C277.968 44.2977 280.664 52.5196 280.664 62.5873C280.664 69.1872 279.26 75.6193 276.452 81.8836C272.408 91.1683 267.185 97.9919 260.782 102.355C255.166 106.158 249.437 108.06 243.596 108.06ZM250.167 83.226C251.291 83.226 252.358 82.4989 253.369 81.0447C257.075 76.2346 258.929 71.4245 258.929 66.6143C258.929 66.2788 258.816 64.7127 258.592 61.9161C258.479 59.1195 257.019 56.4348 254.211 53.862C249.83 61.1331 247.64 68.0126 247.64 74.5007C247.64 76.1786 247.808 77.9125 248.145 79.7023C248.258 80.0379 248.314 80.4294 248.314 80.8769C248.426 81.3243 248.539 81.8277 248.651 82.387C248.876 82.9463 249.381 83.226 250.167 83.226Z" fill="white"/>
<path d="M355.625 108.563C355.064 108.563 353.435 108.395 350.739 108.06C348.043 107.612 345.965 103.249 344.505 94.9716C344.28 92.9581 344.168 90.8327 344.168 88.5954C344.168 84.009 344.954 75.7871 346.527 63.9296L347.032 58.8958L344.673 64.6008C336.249 85.9666 329.453 96.6495 324.286 96.6495C320.018 96.6495 316.76 94.8597 314.514 91.2801C312.38 87.5886 310.863 83.4497 309.965 78.8633C309.178 74.1651 308.673 70.0821 308.448 66.6143C308.224 64.2652 307.999 62.6432 307.774 61.7483C305.303 66.5584 302.832 74.9481 300.361 86.9175C298.788 94.1886 297.216 100.005 295.643 104.368C295.081 105.599 294.014 106.493 292.442 107.053C291.318 107.5 290.139 107.724 288.903 107.724C288.454 107.724 287.668 107.612 286.545 107.388C283.736 106.829 282.332 104.256 282.332 99.6698C282.332 96.3139 282.501 93.4614 282.838 91.1123V89.9378C283.624 80.8769 285.309 71.0889 287.893 60.5737C290.476 49.9468 294.239 41.6689 299.181 35.7402C301.877 32.3843 305.078 30.7064 308.785 30.7064C311.818 30.7064 315.076 31.7691 318.558 33.8945C324.736 38.7046 328.611 45.6401 330.183 54.701C330.52 56.0433 330.801 56.9382 331.026 57.3857C331.138 56.9382 331.307 56.5467 331.531 56.2111C337.035 44.8011 342.034 37.1385 346.527 33.2233C348.998 31.5453 351.357 30.7064 353.603 30.7064C356.749 30.7064 359.781 32.1606 362.702 35.069C368.655 42.1164 371.632 53.1908 371.632 68.2923C371.632 71.9838 371.239 76.8498 370.452 82.8904C369.778 88.8191 368.206 94.5801 365.735 100.173C363.376 105.766 360.006 108.563 355.625 108.563Z" fill="white"/>
<path d="M392.463 112.087C392.014 112.087 390.554 111.975 388.083 111.751C385.611 111.527 383.253 108.954 381.006 104.032C379.209 99.3342 378.31 94.3563 378.31 89.0988C378.31 87.7564 378.422 85.0717 378.647 81.0447C378.984 76.9057 380.22 70.8092 382.354 62.7551C386.061 45.9756 392.576 30.5386 401.899 16.4438C405.044 12.1931 408.245 10.0677 411.503 10.0677C414.535 10.0677 416.95 11.5219 418.748 14.4303C420.208 17.3387 420.938 20.9184 420.938 25.1691C420.938 29.5318 420.432 34.7894 419.422 40.9418L418.916 49.8349C419.478 49.8349 420.826 48.6044 422.96 46.1434C424.757 44.2418 426.835 42.2282 429.194 40.1028C432.451 37.1944 435.653 35.7402 438.798 35.7402C441.044 35.7402 442.729 36.5232 443.853 38.0893C444.414 38.9842 444.695 40.0469 444.695 41.2774C444.695 42.9553 444.077 44.9129 442.842 47.1502C441.606 49.3875 439.584 51.7925 436.776 54.3654C433.968 56.8263 430.205 60.6297 425.487 65.7754C425.038 66.3347 424.701 66.7262 424.476 66.9499C424.364 67.0618 424.308 67.2296 424.308 67.4533C424.308 67.677 424.645 68.2364 425.319 69.1313C429.025 73.9414 433.519 80.765 438.798 89.6022C443.066 96.9851 445.2 102.019 445.2 104.704C445.2 105.934 444.751 107.165 443.853 108.395C442.28 110.073 439.753 110.912 436.271 110.912C432.788 110.912 428.689 108.731 423.971 104.368C420.376 101.124 417.231 98.1038 414.535 95.3072C412.401 92.8462 411.166 91.6157 410.829 91.6157C409.368 96.4258 407.178 100.9 404.258 105.039C400.663 109.737 396.732 112.087 392.463 112.087Z" fill="white"/>
<path d="M465.247 110.744C460.642 110.744 456.43 109.346 452.611 106.549C448.904 103.641 447.051 99.502 447.051 94.1326C447.051 90.2174 448.118 85.9107 450.252 81.2125C452.386 76.4024 455.7 72.2634 460.193 68.7957C464.798 65.2161 470.527 63.4263 477.379 63.4263C478.277 63.4263 478.783 63.3703 478.895 63.2585C479.12 63.0347 479.232 62.5314 479.232 61.7483C479.232 58.728 479.007 55.7636 478.558 52.8552C477.996 49.3875 475.806 47.6536 471.987 47.6536C470.864 47.6536 469.347 48.2688 467.438 49.4993C465.641 50.618 464.405 51.9044 463.731 53.3586C462.72 55.8196 461.035 57.0501 458.676 57.0501C457.89 57.0501 456.991 56.7704 455.98 56.2111C454.97 55.6518 454.464 54.645 454.464 53.1908C454.464 46.2553 456.991 40.7181 462.046 36.5792C467.213 32.3284 472.829 30.203 478.895 30.203C484.961 30.203 489.735 31.6013 493.217 34.3978C496.811 37.1944 499.451 40.7181 501.136 44.9689C502.821 49.2197 503.775 53.5264 504 57.889C504 61.8042 503.495 67.3974 502.484 74.6685C500.686 87.7564 494.789 97.5444 484.792 104.032C478.053 108.507 471.538 110.744 465.247 110.744ZM467.438 90.9445C469.235 90.9445 470.808 90.1056 472.155 88.4276C473.503 86.6378 474.57 84.7361 475.357 82.7226C476.143 80.5972 476.649 78.9193 476.873 77.6888C475.076 77.6888 473.166 78.36 471.145 79.7023C469.123 81.0447 467.438 82.6107 466.09 84.4006C464.742 86.0785 464.068 87.5886 464.068 88.931C464.068 90.2734 465.191 90.9445 467.438 90.9445Z" fill="white"/>
</svg>
